<svg xmlns="http://www.w3.org/2000/svg" viewBox="0 0 21 21">
  <symbol id="floppy" fill="currentColor">
    <path d="M 0 0 L 0 20.9999 L 20.9999 20.9999 L 20.9999 3.2308 L 19.3846 3.2308 L 19.3846 19.3846 L 1.6154 19.3846 L 1.6154 1.6154 L 17.7692 1.6154 L 17.7692 0 M 17.7692 1.6154 L 19.3846 1.6154 L 19.3846 3.2308 L 17.7692 3.2308 L 17.7692 1.6154 M 3.2308 1.6154 L 3.2308 8.0769 L 16.1538 8.0769 L 16.1538 1.6154 L 14.5384 1.6154 L 14.5384 6.4615 L 4.8461 6.4615 L 4.8461 1.6154 M 11.3077 1.6154 L 11.3077 6.4615 L 12.923 6.4615 L 12.923 1.6154 M 3.2308 19.3846 L 3.2308 11.3077 L 17.7692 11.3077 L 17.7692 19.3846 L 16.1538 19.3846 L 16.1538 12.923 L 4.8461 12.923 L 4.8461 19.3846 L 3.2308 19.3846"/>
  </symbol>
</svg>
